<svg width="14" height="15" viewBox="0 0 14 15" fill="none" xmlns="http://www.w3.org/2000/svg">
<g id="Left" clip-path="url(#clip0_65_1692)">
<path id="Vector" d="M11.4172 2.0759V0.648069C11.4172 0.524312 11.275 0.455968 11.179 0.5317L2.85222 7.03545C2.78147 7.09047 2.72423 7.16092 2.68485 7.24143C2.64547 7.32194 2.625 7.41038 2.625 7.5C2.625 7.58962 2.64547 7.67806 2.68485 7.75857C2.72423 7.83908 2.78147 7.90953 2.85222 7.96455L11.179 14.4683C11.2769 14.544 11.4172 14.4757 11.4172 14.3519V12.9241C11.4172 12.8336 11.3748 12.7468 11.3046 12.6914L4.65499 7.50092L11.3046 2.30864C11.3748 2.25323 11.4172 2.16641 11.4172 2.0759Z" fill="white"/>
</g>
<defs>
<clipPath id="clip0_65_1692">
<rect width="14" height="14" fill="white" transform="translate(0 0.5)"/>
</clipPath>
</defs>
</svg>
